<svg xmlns="http://www.w3.org/2000/svg" width="13.109" height="8.74" viewBox="0 0 13.109 8.74">
  <path id="Icon_awesome-eye" data-name="Icon awesome-eye" d="M13.03,8.538A7.3,7.3,0,0,0,6.555,4.5,7.3,7.3,0,0,0,.079,8.538a.736.736,0,0,0,0,.664A7.3,7.3,0,0,0,6.555,13.24,7.3,7.3,0,0,0,13.03,9.2.736.736,0,0,0,13.03,8.538Zm-6.475,3.61A3.277,3.277,0,1,1,9.832,8.87,3.277,3.277,0,0,1,6.555,12.147Zm0-5.462a2.169,2.169,0,0,0-.576.086A1.089,1.089,0,0,1,4.456,8.294a2.18,2.18,0,1,0,2.1-1.609Z" transform="translate(0 -4.5)" fill="#490057"/>
</svg>
